<svg width="108" height="108" viewBox="0 0 108 108" fill="none" xmlns="http://www.w3.org/2000/svg">
<rect width="108" height="108" fill="#212121"/>
<path d="M18 31C18 29.8954 18.8954 29 20 29H45.9821C47.0936 29 47.9919 29.9064 47.982 31.0179L47.7498 57.0179C47.74 58.1154 46.8475 59 45.7499 59H20C18.8954 59 18 58.1046 18 57V31Z" fill="url(#paint0_linear)"/>
<path d="M31 46C31 44.8954 31.8985 43.9879 32.9954 44.1175C34.5426 44.3004 36.0604 44.6954 37.5056 45.294C39.5682 46.1484 41.4422 47.4006 43.0208 48.9792C44.5994 50.5578 45.8516 52.4319 46.706 54.4944C47.5603 56.5569 48 58.7675 48 61C48 63.2325 47.5603 65.4431 46.7059 67.5056C45.8516 69.5682 44.5994 71.4422 43.0208 73.0208C41.4422 74.5994 39.5681 75.8516 37.5056 76.706C36.0604 77.3046 34.5426 77.6996 32.9954 77.8825C31.8985 78.0121 31 77.1046 31 76L31 67.4595C31 66.4536 31.8456 65.67 32.7749 65.2851C33.3377 65.052 33.849 64.7103 34.2796 64.2797C34.7103 63.849 35.052 63.3377 35.2851 62.7749C35.5182 62.2122 35.6381 61.6091 35.6381 61C35.6381 60.3909 35.5182 59.7878 35.2851 59.2251C35.052 58.6623 34.7103 58.151 34.2797 57.7204C33.849 57.2897 33.3377 56.948 32.7749 56.7149C31.8456 56.33 31 55.5464 31 54.5405L31 46Z" fill="url(#paint1_linear)"/>
<path d="M47.5 29V61" stroke="#EEEEEE"/>
<line x1="47" y1="29.5" x2="46" y2="29.5" stroke="#EEEEEE"/>
<path d="M60 31C60 29.8954 60.8954 29 62 29H87.9821C89.0936 29 89.9919 29.9064 89.982 31.0179L89.7498 57.0179C89.74 58.1154 88.8475 59 87.7499 59H62C60.8954 59 60 58.1046 60 57V31Z" fill="url(#paint2_linear)"/>
<path d="M73 46C73 44.8954 73.8985 43.9879 74.9954 44.1175C76.5426 44.3004 78.0604 44.6954 79.5056 45.294C81.5682 46.1484 83.4422 47.4006 85.0208 48.9792C86.5994 50.5578 87.8516 52.4319 88.706 54.4944C89.5603 56.5569 90 58.7675 90 61C90 63.2325 89.5603 65.4431 88.7059 67.5056C87.8516 69.5682 86.5994 71.4422 85.0208 73.0208C83.4422 74.5994 81.5681 75.8516 79.5056 76.706C78.0604 77.3046 76.5426 77.6996 74.9954 77.8825C73.8985 78.0121 73 77.1046 73 76L73 67.4595C73 66.4536 73.8456 65.67 74.7749 65.2851C75.3377 65.052 75.849 64.7103 76.2796 64.2797C76.7103 63.849 77.052 63.3377 77.2851 62.7749C77.5182 62.2122 77.6381 61.6091 77.6381 61C77.6381 60.3909 77.5182 59.7878 77.2851 59.2251C77.052 58.6623 76.7103 58.151 76.2797 57.7204C75.849 57.2897 75.3377 56.948 74.7749 56.7149C73.8456 56.33 73 55.5464 73 54.5405V46Z" fill="url(#paint3_linear)"/>
<path d="M89.5 29V61" stroke="#EEEEEE"/>
<line x1="89" y1="29.5" x2="88" y2="29.5" stroke="#EEEEEE"/>
<defs>
<linearGradient id="paint0_linear" x1="47.8488" y1="43.4828" x2="17.8488" y2="43.4828" gradientUnits="userSpaceOnUse">
<stop offset="0.810417" stop-color="#EEEEEE"/>
<stop offset="1" stop-color="#EEEEEE" stop-opacity="0"/>
</linearGradient>
<linearGradient id="paint1_linear" x1="48" y1="71.5" x2="31" y2="71" gradientUnits="userSpaceOnUse">
<stop offset="0.732292" stop-color="#EEEEEE"/>
<stop offset="1" stop-color="#EEEEEE" stop-opacity="0"/>
</linearGradient>
<linearGradient id="paint2_linear" x1="89.8488" y1="43.4828" x2="59.8488" y2="43.4828" gradientUnits="userSpaceOnUse">
<stop offset="0.810417" stop-color="#EEEEEE"/>
<stop offset="1" stop-color="#EEEEEE" stop-opacity="0"/>
</linearGradient>
<linearGradient id="paint3_linear" x1="90" y1="71.5" x2="73" y2="71" gradientUnits="userSpaceOnUse">
<stop offset="0.732292" stop-color="#EEEEEE"/>
<stop offset="1" stop-color="#EEEEEE" stop-opacity="0"/>
</linearGradient>
</defs>
</svg>
