<svg width="3288" height="3202" viewBox="0 0 3288 3202" fill="none" xmlns="http://www.w3.org/2000/svg">
<rect width="3288" height="3202" fill="#161B22"/>
<rect width="512" height="512" transform="translate(349 1073)" fill="#212121"/>
<circle cx="638.5" cy="1328.5" r="95.5" fill="white"/>
<circle cx="730" cy="1366" r="58" fill="white"/>
<circle cx="499" cy="1348" r="76" fill="white"/>
<rect x="499" y="1329" width="235" height="95" fill="white"/>
<rect x="753.023" y="1230" width="20" height="347" rx="10" transform="rotate(50.3107 753.023 1230)" fill="black"/>
<rect width="292" height="292" transform="translate(349 709)" fill="#212121"/>
<path d="M401.047 789C401.047 787.895 401.943 787 403.047 787H481.884C482.995 787 483.894 787.906 483.884 789.018L483.18 867.872C483.17 868.97 482.277 869.854 481.18 869.854H403.047C401.943 869.854 401.047 868.959 401.047 867.854V789Z" fill="url(#paint0_linear)"/>
<path d="M436.951 830.427C436.951 829.323 437.847 828.423 438.95 828.47C444.433 828.703 449.838 829.897 454.918 832.001C460.615 834.361 465.79 837.819 470.15 842.179C474.51 846.539 477.968 851.714 480.328 857.411C482.687 863.107 483.902 869.212 483.902 875.378C483.902 881.544 482.687 887.649 480.328 893.345C477.968 899.042 474.51 904.218 470.15 908.577C465.79 912.937 460.614 916.396 454.918 918.755C449.838 920.859 444.433 922.053 438.95 922.286C437.847 922.333 436.951 921.433 436.951 920.329L436.951 890.188C436.951 889.083 437.852 888.204 438.943 888.032C439.939 887.875 440.916 887.601 441.853 887.213C443.407 886.569 444.819 885.625 446.009 884.436C447.198 883.246 448.142 881.834 448.785 880.28C449.429 878.726 449.761 877.06 449.761 875.378C449.761 873.696 449.429 872.03 448.785 870.476C448.142 868.922 447.198 867.51 446.009 866.32C444.819 865.131 443.407 864.187 441.853 863.543C440.916 863.156 439.939 862.881 438.943 862.724C437.852 862.552 436.951 861.673 436.951 860.568V830.427Z" fill="url(#paint1_linear)"/>
<path d="M482.521 787V875.378" stroke="#EEEEEE"/>
<line x1="481.14" y1="787.5" x2="478.378" y2="787.5" stroke="#EEEEEE"/>
<path d="M517.043 789C517.043 787.895 517.939 787 519.043 787H597.88C598.992 787 599.89 787.906 599.88 789.018L599.176 867.872C599.166 868.97 598.274 869.854 597.176 869.854H519.043C517.939 869.854 517.043 868.959 517.043 867.854V789Z" fill="url(#paint2_linear)"/>
<path d="M552.947 830.427C552.947 829.323 553.843 828.423 554.947 828.47C560.43 828.703 565.835 829.897 570.915 832.001C576.611 834.361 581.787 837.819 586.146 842.179C590.506 846.539 593.965 851.714 596.324 857.411C598.684 863.107 599.898 869.212 599.898 875.378C599.898 881.544 598.684 887.649 596.324 893.345C593.965 899.042 590.506 904.218 586.146 908.577C581.787 912.937 576.611 916.396 570.914 918.755C565.835 920.859 560.43 922.053 554.947 922.286C553.843 922.333 552.947 921.433 552.947 920.329L552.947 890.188C552.947 889.083 553.848 888.204 554.939 888.032C555.936 887.875 556.913 887.601 557.849 887.213C559.403 886.569 560.815 885.625 562.005 884.436C563.194 883.246 564.138 881.834 564.782 880.28C565.426 878.726 565.757 877.06 565.757 875.378C565.757 873.696 565.426 872.03 564.782 870.476C564.138 868.922 563.194 867.51 562.005 866.32C560.816 865.131 559.403 864.187 557.849 863.543C556.913 863.156 555.936 862.881 554.939 862.724C553.848 862.552 552.947 861.673 552.947 860.568V830.427Z" fill="url(#paint3_linear)"/>
<path d="M598.517 787V875.378" stroke="#EEEEEE"/>
<line x1="597.136" y1="787.5" x2="594.374" y2="787.5" stroke="#EEEEEE"/>
<path d="M1121 777.747C1121 728.181 1161.15 688 1210.67 688H1682.7C1732.23 688 1772.37 728.181 1772.37 777.747V1995.25C1772.37 2044.82 1732.23 2085 1682.7 2085H1210.67C1161.15 2085 1121 2044.82 1121 1995.25V777.747Z" fill="#3A4245"/>
<path d="M1129.14 777.459C1129.14 732.549 1165.54 696.141 1210.43 696.141H1682.94C1727.83 696.141 1764.23 732.549 1764.23 777.459V1995.54C1764.23 2040.45 1727.83 2076.86 1682.94 2076.86H1210.43C1165.54 2076.86 1129.14 2040.45 1129.14 1995.54V777.459Z" fill="#121515"/>
<path fill-rule="evenodd" clip-rule="evenodd" d="M1410.86 744.987C1410.86 742.289 1413.1 740.103 1415.86 740.103H1477.51C1480.27 740.103 1482.51 742.289 1482.51 744.987C1482.51 747.685 1480.27 749.872 1477.51 749.872H1415.86C1413.1 749.872 1410.86 747.685 1410.86 744.987Z" fill="#262C2D"/>
<path d="M1319.1 735.777C1319.1 732.176 1322.02 729.257 1325.62 729.257C1329.21 729.257 1332.13 732.176 1332.13 735.777V756.966C1332.13 760.567 1329.21 763.486 1325.62 763.486C1322.02 763.486 1319.1 760.567 1319.1 756.966V735.777Z" fill="#262C2D"/>
<path d="M1304.45 746.372C1304.45 755.824 1296.8 763.486 1287.36 763.486C1277.92 763.486 1270.27 755.824 1270.27 746.372C1270.27 736.919 1277.92 729.257 1287.36 729.257C1296.8 729.257 1304.45 736.919 1304.45 746.372Z" fill="#262C2D"/>
<path d="M1299.57 746.372C1299.57 753.123 1294.1 758.596 1287.36 758.596C1280.62 758.596 1275.15 753.123 1275.15 746.372C1275.15 739.62 1280.62 734.147 1287.36 734.147C1294.1 734.147 1299.57 739.62 1299.57 746.372Z" fill="#121515"/>
<path d="M1772.37 1196H1775.63C1777.43 1196 1778.89 1197.51 1778.89 1199.37V1381.5C1778.89 1383.36 1777.43 1384.87 1775.63 1384.87H1772.37V1196Z" fill="#121515"/>
<path d="M1772.37 1003.87H1775.63C1777.43 1003.87 1778.89 1005.38 1778.89 1007.24V1094.93C1778.89 1096.8 1777.43 1098.31 1775.63 1098.31H1772.37V1003.87Z" fill="#FB7E5C"/>
<mask id="mask0" mask-type="alpha" maskUnits="userSpaceOnUse" x="1146" y="784" width="603" height="1272">
<path d="M1146 848.515C1146 812.884 1174.88 784 1210.49 784H1684.02C1719.64 784 1748.52 812.884 1748.52 848.515V1991.11C1748.52 2026.74 1719.64 2055.63 1684.02 2055.63H1210.49C1174.88 2055.63 1146 2026.74 1146 1991.11V848.515Z" fill="white"/>
</mask>
<g mask="url(#mask0)">
<rect x="1146" y="784" width="602.519" height="1271.63" fill="#212121"/>
</g>
<g clip-path="url(#clip0)">
<rect width="283" height="167" transform="translate(1306 1303)" fill="#212121"/>
<path d="M1326.65 1305C1326.65 1303.9 1327.54 1303 1328.65 1303H1426.98C1428.09 1303 1428.99 1303.91 1428.98 1305.02L1428.1 1403.37C1428.09 1404.47 1427.2 1405.35 1426.1 1405.35H1328.65C1327.54 1405.35 1326.65 1404.46 1326.65 1403.35V1305Z" fill="url(#paint4_linear)"/>
<path d="M1371 1356.18C1371 1355.07 1371.9 1354.17 1373 1354.21C1379.93 1354.45 1386.78 1355.93 1393.2 1358.59C1400.23 1361.51 1406.63 1365.78 1412.01 1371.16C1417.4 1376.55 1421.67 1382.94 1424.59 1389.98C1427.5 1397.02 1429 1404.56 1429 1412.18C1429 1419.79 1427.5 1427.34 1424.58 1434.37C1421.67 1441.41 1417.4 1447.8 1412.01 1453.19C1406.63 1458.57 1400.23 1462.85 1393.2 1465.76C1386.78 1468.42 1379.93 1469.9 1373 1470.14C1371.9 1470.18 1371 1469.28 1371 1468.18L1371 1430C1371 1428.9 1371.9 1428.01 1372.99 1427.87C1374.39 1427.7 1375.75 1427.34 1377.06 1426.8C1378.98 1426 1380.72 1424.84 1382.19 1423.37C1383.66 1421.9 1384.82 1420.15 1385.62 1418.23C1386.41 1416.31 1386.82 1414.25 1386.82 1412.18C1386.82 1410.1 1386.41 1408.04 1385.62 1406.12C1384.82 1404.2 1383.66 1402.46 1382.19 1400.99C1380.72 1399.52 1378.98 1398.35 1377.06 1397.56C1375.75 1397.02 1374.39 1396.66 1372.99 1396.48C1371.9 1396.34 1371 1395.46 1371 1394.35V1356.18Z" fill="url(#paint5_linear)"/>
<path d="M1427.29 1303L1427.68 1412.41" stroke="#EEEEEE"/>
<line x1="1425.59" y1="1303.5" x2="1422.18" y2="1303.5" stroke="#EEEEEE"/>
<path d="M1461.65 1305C1461.65 1303.9 1462.54 1303 1463.65 1303H1561.98C1563.09 1303 1563.99 1303.91 1563.98 1305.02L1563.1 1403.37C1563.09 1404.47 1562.2 1405.35 1561.1 1405.35H1463.65C1462.54 1405.35 1461.65 1404.46 1461.65 1403.35V1305Z" fill="url(#paint6_linear)"/>
<path d="M1506 1356.18C1506 1355.07 1506.9 1354.17 1508 1354.21C1514.93 1354.45 1521.78 1355.93 1528.2 1358.59C1535.23 1361.51 1541.63 1365.78 1547.01 1371.16C1552.4 1376.55 1556.67 1382.94 1559.59 1389.98C1562.5 1397.02 1564 1404.56 1564 1412.18C1564 1419.79 1562.5 1427.34 1559.58 1434.37C1556.67 1441.41 1552.4 1447.8 1547.01 1453.19C1541.63 1458.57 1535.23 1462.85 1528.2 1465.76C1521.78 1468.42 1514.93 1469.9 1508 1470.14C1506.9 1470.18 1506 1469.28 1506 1468.18L1506 1430C1506 1428.9 1506.9 1428.01 1507.99 1427.87C1509.39 1427.7 1510.75 1427.34 1512.06 1426.8C1513.98 1426 1515.72 1424.84 1517.19 1423.37C1518.66 1421.9 1519.82 1420.15 1520.62 1418.23C1521.41 1416.31 1521.82 1414.25 1521.82 1412.18C1521.82 1410.1 1521.41 1408.04 1520.62 1406.12C1519.82 1404.2 1518.66 1402.46 1517.19 1400.99C1515.72 1399.52 1513.98 1398.35 1512.06 1397.56C1510.75 1397.02 1509.39 1396.66 1507.99 1396.48C1506.9 1396.34 1506 1395.46 1506 1394.35V1356.18Z" fill="url(#paint7_linear)"/>
<path d="M1562.29 1303L1562.68 1412.41" stroke="#EEEEEE"/>
<line x1="1560.59" y1="1303.5" x2="1557.18" y2="1303.5" stroke="#EEEEEE"/>
</g>
<path d="M2165 1782.75C2165 1733.18 2205.15 1693 2254.67 1693H2726.7C2776.23 1693 2816.37 1733.18 2816.37 1782.75V3000.25C2816.37 3049.82 2776.23 3090 2726.7 3090H2254.67C2205.15 3090 2165 3049.82 2165 3000.25V1782.75Z" fill="#3A4245"/>
<path d="M2173.14 1782.46C2173.14 1737.55 2209.54 1701.14 2254.43 1701.14H2726.94C2771.83 1701.14 2808.23 1737.55 2808.23 1782.46V3000.54C2808.23 3045.45 2771.83 3081.86 2726.94 3081.86H2254.43C2209.54 3081.86 2173.14 3045.45 2173.14 3000.54V1782.46Z" fill="#121515"/>
<path fill-rule="evenodd" clip-rule="evenodd" d="M2454.86 1749.99C2454.86 1747.29 2457.1 1745.1 2459.86 1745.1H2521.51C2524.27 1745.1 2526.51 1747.29 2526.51 1749.99V1749.99C2526.51 1752.68 2524.27 1754.87 2521.51 1754.87H2459.86C2457.1 1754.87 2454.86 1752.68 2454.86 1749.99V1749.99Z" fill="#262C2D"/>
<path d="M2363.1 1740.78C2363.1 1737.18 2366.02 1734.26 2369.62 1734.26V1734.26C2373.21 1734.26 2376.13 1737.18 2376.13 1740.78V1761.97C2376.13 1765.57 2373.21 1768.49 2369.62 1768.49V1768.49C2366.02 1768.49 2363.1 1765.57 2363.1 1761.97V1740.78Z" fill="#262C2D"/>
<path d="M2348.45 1751.37C2348.45 1760.82 2340.8 1768.49 2331.36 1768.49C2321.92 1768.49 2314.27 1760.82 2314.27 1751.37C2314.27 1741.92 2321.92 1734.26 2331.36 1734.26C2340.8 1734.26 2348.45 1741.92 2348.45 1751.37Z" fill="#262C2D"/>
<path d="M2343.57 1751.37C2343.57 1758.12 2338.1 1763.6 2331.36 1763.6C2324.62 1763.6 2319.15 1758.12 2319.15 1751.37C2319.15 1744.62 2324.62 1739.15 2331.36 1739.15C2338.1 1739.15 2343.57 1744.62 2343.57 1751.37Z" fill="#121515"/>
<path d="M2816.37 2201H2819.63C2821.43 2201 2822.89 2202.51 2822.89 2204.37V2386.5C2822.89 2388.36 2821.43 2389.87 2819.63 2389.87H2816.37V2201Z" fill="#121515"/>
<path d="M2816.37 2008.87H2819.63C2821.43 2008.87 2822.89 2010.38 2822.89 2012.24V2099.94C2822.89 2101.8 2821.43 2103.31 2819.63 2103.31H2816.37V2008.87Z" fill="#FB7E5C"/>
<mask id="mask1" mask-type="alpha" maskUnits="userSpaceOnUse" x="2190" y="1789" width="603" height="1272">
<path d="M2190 1853.52C2190 1817.88 2218.88 1789 2254.49 1789H2728.02C2763.64 1789 2792.52 1817.88 2792.52 1853.52V2996.11C2792.52 3031.74 2763.64 3060.63 2728.02 3060.63H2254.49C2218.88 3060.63 2190 3031.74 2190 2996.11V1853.52Z" fill="white"/>
</mask>
<g mask="url(#mask1)">
<rect x="2190" y="1789" width="602.519" height="1271.63" fill="#212121"/>
</g>
<circle cx="2524.5" cy="2372.5" r="95.5" fill="white"/>
<circle cx="2616" cy="2410" r="58" fill="white"/>
<circle cx="2385" cy="2392" r="76" fill="white"/>
<rect x="2385" y="2373" width="235" height="95" fill="white"/>
<rect x="2639.02" y="2274" width="20" height="347" rx="10" transform="rotate(50.3107 2639.02 2274)" fill="black"/>
<path d="M2268.19 2555H2263.66L2246.48 2528.7V2555H2241.96V2520.88H2246.48L2263.71 2547.29V2520.88H2268.19V2555ZM2274.35 2542.09C2274.35 2539.6 2274.84 2537.37 2275.8 2535.38C2276.79 2533.4 2278.15 2531.87 2279.88 2530.79C2281.63 2529.71 2283.62 2529.17 2285.86 2529.17C2289.31 2529.17 2292.1 2530.37 2294.23 2532.76C2296.37 2535.15 2297.44 2538.33 2297.44 2542.3V2542.6C2297.44 2545.07 2296.96 2547.29 2296.01 2549.26C2295.07 2551.21 2293.72 2552.73 2291.95 2553.83C2290.2 2554.92 2288.19 2555.47 2285.91 2555.47C2282.47 2555.47 2279.68 2554.27 2277.54 2551.88C2275.41 2549.49 2274.35 2546.33 2274.35 2542.39V2542.09ZM2278.71 2542.6C2278.71 2545.41 2279.36 2547.67 2280.66 2549.38C2281.97 2551.08 2283.72 2551.93 2285.91 2551.93C2288.11 2551.93 2289.86 2551.07 2291.16 2549.35C2292.45 2547.62 2293.1 2545.2 2293.1 2542.09C2293.1 2539.3 2292.44 2537.05 2291.11 2535.34C2289.8 2533.6 2288.05 2532.73 2285.86 2532.73C2283.72 2532.73 2281.99 2533.59 2280.68 2535.29C2279.37 2536.99 2278.71 2539.43 2278.71 2542.6ZM2320.29 2555H2315.79V2520.88H2320.29V2555ZM2331.96 2529.64L2332.1 2532.83C2334.04 2530.39 2336.57 2529.17 2339.7 2529.17C2345.05 2529.17 2347.76 2532.2 2347.8 2538.24V2555H2343.47V2538.22C2343.45 2536.39 2343.03 2535.04 2342.2 2534.16C2341.39 2533.29 2340.12 2532.85 2338.38 2532.85C2336.98 2532.85 2335.74 2533.23 2334.68 2533.98C2333.62 2534.73 2332.79 2535.71 2332.2 2536.93V2555H2327.86V2529.64H2331.96ZM2360.23 2523.5V2529.64H2364.96V2532.99H2360.23V2548.72C2360.23 2549.73 2360.44 2550.5 2360.86 2551.02C2361.28 2551.52 2362 2551.77 2363.02 2551.77C2363.52 2551.77 2364.2 2551.67 2365.08 2551.48V2555C2363.94 2555.31 2362.83 2555.47 2361.75 2555.47C2359.81 2555.47 2358.35 2554.88 2357.37 2553.71C2356.38 2552.54 2355.89 2550.88 2355.89 2548.72V2532.99H2351.27V2529.64H2355.89V2523.5H2360.23ZM2380.57 2555.47C2377.13 2555.47 2374.34 2554.34 2372.18 2552.09C2370.02 2549.83 2368.95 2546.8 2368.95 2543.02V2542.23C2368.95 2539.71 2369.42 2537.47 2370.38 2535.5C2371.34 2533.52 2372.69 2531.97 2374.41 2530.86C2376.14 2529.73 2378.02 2529.17 2380.03 2529.17C2383.33 2529.17 2385.89 2530.26 2387.72 2532.43C2389.55 2534.6 2390.46 2537.71 2390.46 2541.76V2543.56H2373.28C2373.34 2546.06 2374.07 2548.09 2375.46 2549.63C2376.87 2551.16 2378.65 2551.93 2380.8 2551.93C2382.34 2551.93 2383.63 2551.62 2384.7 2550.99C2385.76 2550.37 2386.69 2549.54 2387.48 2548.51L2390.13 2550.57C2388.01 2553.84 2384.82 2555.47 2380.57 2555.47ZM2380.03 2532.73C2378.28 2532.73 2376.81 2533.38 2375.62 2534.66C2374.44 2535.92 2373.7 2537.7 2373.42 2540H2386.12V2539.67C2386 2537.47 2385.41 2535.77 2384.34 2534.56C2383.28 2533.34 2381.84 2532.73 2380.03 2532.73ZM2407.76 2533.53C2407.1 2533.42 2406.39 2533.37 2405.62 2533.37C2402.78 2533.37 2400.85 2534.58 2399.84 2537V2555H2395.5V2529.64H2399.72L2399.79 2532.57C2401.21 2530.3 2403.23 2529.17 2405.84 2529.17C2406.68 2529.17 2407.32 2529.28 2407.76 2529.5V2533.53ZM2415.87 2529.64L2416.01 2532.83C2417.95 2530.39 2420.48 2529.17 2423.6 2529.17C2428.96 2529.17 2431.66 2532.2 2431.71 2538.24V2555H2427.38V2538.22C2427.36 2536.39 2426.94 2535.04 2426.11 2534.16C2425.3 2533.29 2424.02 2532.85 2422.29 2532.85C2420.88 2532.85 2419.65 2533.23 2418.59 2533.98C2417.52 2534.73 2416.7 2535.71 2416.1 2536.93V2555H2411.77V2529.64H2415.87ZM2448.77 2555.47C2445.34 2555.47 2442.54 2554.34 2440.38 2552.09C2438.23 2549.83 2437.15 2546.8 2437.15 2543.02V2542.23C2437.15 2539.71 2437.62 2537.47 2438.58 2535.5C2439.55 2533.52 2440.89 2531.97 2442.61 2530.86C2444.34 2529.73 2446.22 2529.17 2448.23 2529.17C2451.53 2529.17 2454.09 2530.26 2455.92 2532.43C2457.75 2534.6 2458.66 2537.71 2458.66 2541.76V2543.56H2441.48C2441.55 2546.06 2442.27 2548.09 2443.66 2549.63C2445.07 2551.16 2446.85 2551.93 2449.01 2551.93C2450.54 2551.93 2451.84 2551.62 2452.9 2550.99C2453.96 2550.37 2454.89 2549.54 2455.69 2548.51L2458.34 2550.57C2456.21 2553.84 2453.02 2555.47 2448.77 2555.47ZM2448.23 2532.73C2446.48 2532.73 2445.02 2533.38 2443.83 2534.66C2442.64 2535.92 2441.91 2537.7 2441.62 2540H2454.33V2539.67C2454.2 2537.47 2453.61 2535.77 2452.55 2534.56C2451.48 2533.34 2450.05 2532.73 2448.23 2532.73ZM2469.59 2523.5V2529.64H2474.32V2532.99H2469.59V2548.72C2469.59 2549.73 2469.8 2550.5 2470.22 2551.02C2470.64 2551.52 2471.36 2551.77 2472.38 2551.77C2472.88 2551.77 2473.56 2551.67 2474.44 2551.48V2555C2473.3 2555.31 2472.19 2555.47 2471.11 2555.47C2469.17 2555.47 2467.71 2554.88 2466.73 2553.71C2465.74 2552.54 2465.25 2550.88 2465.25 2548.72V2532.99H2460.63V2529.64H2465.25V2523.5H2469.59ZM2517.09 2544.17C2516.67 2547.78 2515.34 2550.57 2513.09 2552.54C2510.85 2554.49 2507.88 2555.47 2504.16 2555.47C2500.12 2555.47 2496.89 2554.02 2494.45 2551.13C2492.03 2548.24 2490.82 2544.38 2490.82 2539.53V2536.25C2490.82 2533.08 2491.38 2530.29 2492.51 2527.88C2493.65 2525.48 2495.26 2523.63 2497.34 2522.35C2499.41 2521.05 2501.82 2520.41 2504.55 2520.41C2508.18 2520.41 2511.09 2521.42 2513.27 2523.45C2515.46 2525.47 2516.73 2528.27 2517.09 2531.84H2512.57C2512.18 2529.12 2511.33 2527.16 2510.02 2525.94C2508.72 2524.72 2506.9 2524.11 2504.55 2524.11C2501.68 2524.11 2499.42 2525.17 2497.78 2527.3C2496.16 2529.42 2495.34 2532.45 2495.34 2536.37V2539.67C2495.34 2543.38 2496.12 2546.32 2497.66 2548.51C2499.21 2550.7 2501.38 2551.79 2504.16 2551.79C2506.66 2551.79 2508.57 2551.23 2509.9 2550.1C2511.24 2548.96 2512.13 2546.98 2512.57 2544.17H2517.09ZM2521.43 2542.09C2521.43 2539.6 2521.91 2537.37 2522.88 2535.38C2523.87 2533.4 2525.23 2531.87 2526.96 2530.79C2528.71 2529.71 2530.7 2529.17 2532.94 2529.17C2536.39 2529.17 2539.18 2530.37 2541.3 2532.76C2543.45 2535.15 2544.52 2538.33 2544.52 2542.3V2542.6C2544.52 2545.07 2544.04 2547.29 2543.09 2549.26C2542.15 2551.21 2540.8 2552.73 2539.03 2553.83C2537.28 2554.92 2535.27 2555.47 2532.98 2555.47C2529.55 2555.47 2526.76 2554.27 2524.62 2551.88C2522.49 2549.49 2521.43 2546.33 2521.43 2542.39V2542.09ZM2525.79 2542.6C2525.79 2545.41 2526.44 2547.67 2527.73 2549.38C2529.05 2551.08 2530.8 2551.93 2532.98 2551.93C2535.19 2551.93 2536.94 2551.07 2538.23 2549.35C2539.53 2547.62 2540.18 2545.2 2540.18 2542.09C2540.18 2539.3 2539.52 2537.05 2538.19 2535.34C2536.88 2533.6 2535.12 2532.73 2532.94 2532.73C2530.8 2532.73 2529.07 2533.59 2527.76 2535.29C2526.45 2536.99 2525.79 2539.43 2525.79 2542.6ZM2554.05 2529.64L2554.2 2532.83C2556.13 2530.39 2558.66 2529.17 2561.79 2529.17C2567.15 2529.17 2569.85 2532.2 2569.9 2538.24V2555H2565.56V2538.22C2565.55 2536.39 2565.12 2535.04 2564.3 2534.16C2563.48 2533.29 2562.21 2532.85 2560.48 2532.85C2559.07 2532.85 2557.84 2533.23 2556.77 2533.98C2555.71 2534.73 2554.88 2535.71 2554.29 2536.93V2555H2549.95V2529.64H2554.05ZM2580.54 2529.64L2580.68 2532.83C2582.62 2530.39 2585.15 2529.17 2588.27 2529.17C2593.63 2529.17 2596.34 2532.2 2596.38 2538.24V2555H2592.05V2538.22C2592.03 2536.39 2591.61 2535.04 2590.78 2534.16C2589.97 2533.29 2588.7 2532.85 2586.96 2532.85C2585.55 2532.85 2584.32 2533.23 2583.26 2533.98C2582.2 2534.73 2581.37 2535.71 2580.77 2536.93V2555H2576.44V2529.64H2580.54ZM2613.45 2555.47C2610.01 2555.47 2607.21 2554.34 2605.05 2552.09C2602.9 2549.83 2601.82 2546.8 2601.82 2543.02V2542.23C2601.82 2539.71 2602.3 2537.47 2603.25 2535.5C2604.22 2533.52 2605.56 2531.97 2607.28 2530.86C2609.02 2529.73 2610.89 2529.17 2612.91 2529.17C2616.2 2529.17 2618.77 2530.26 2620.59 2532.43C2622.42 2534.6 2623.34 2537.71 2623.34 2541.76V2543.56H2606.16C2606.22 2546.06 2606.95 2548.09 2608.34 2549.63C2609.74 2551.16 2611.52 2551.93 2613.68 2551.93C2615.21 2551.93 2616.51 2551.62 2617.57 2550.99C2618.63 2550.37 2619.56 2549.54 2620.36 2548.51L2623.01 2550.57C2620.88 2553.84 2617.7 2555.47 2613.45 2555.47ZM2612.91 2532.73C2611.16 2532.73 2609.69 2533.38 2608.5 2534.66C2607.31 2535.92 2606.58 2537.7 2606.3 2540H2619V2539.67C2618.88 2537.47 2618.28 2535.77 2617.22 2534.56C2616.16 2533.34 2614.72 2532.73 2612.91 2532.73ZM2638.55 2551.93C2640.09 2551.93 2641.45 2551.46 2642.6 2550.52C2643.76 2549.59 2644.4 2548.41 2644.52 2547.01H2648.62C2648.55 2548.46 2648.05 2549.84 2647.12 2551.16C2646.2 2552.47 2644.97 2553.52 2643.42 2554.3C2641.89 2555.08 2640.27 2555.47 2638.55 2555.47C2635.09 2555.47 2632.34 2554.32 2630.3 2552.02C2628.27 2549.71 2627.25 2546.55 2627.25 2542.55V2541.83C2627.25 2539.36 2627.7 2537.16 2628.61 2535.24C2629.52 2533.32 2630.81 2531.83 2632.5 2530.77C2634.2 2529.7 2636.21 2529.17 2638.52 2529.17C2641.37 2529.17 2643.73 2530.02 2645.6 2531.73C2647.49 2533.43 2648.5 2535.64 2648.62 2538.36H2644.52C2644.4 2536.72 2643.77 2535.38 2642.65 2534.33C2641.54 2533.27 2640.16 2532.73 2638.52 2532.73C2636.32 2532.73 2634.61 2533.53 2633.39 2535.12C2632.19 2536.7 2631.59 2538.99 2631.59 2541.99V2542.81C2631.59 2545.73 2632.19 2547.98 2633.39 2549.56C2634.59 2551.14 2636.31 2551.93 2638.55 2551.93ZM2659.38 2523.5V2529.64H2664.12V2532.99H2659.38V2548.72C2659.38 2549.73 2659.59 2550.5 2660.02 2551.02C2660.44 2551.52 2661.16 2551.77 2662.17 2551.77C2662.67 2551.77 2663.36 2551.67 2664.23 2551.48V2555C2663.09 2555.31 2661.98 2555.47 2660.91 2555.47C2658.97 2555.47 2657.51 2554.88 2656.52 2553.71C2655.54 2552.54 2655.05 2550.88 2655.05 2548.72V2532.99H2650.43V2529.64H2655.05V2523.5H2659.38ZM2673.91 2555H2669.58V2529.64H2673.91V2555ZM2669.23 2522.91C2669.23 2522.21 2669.44 2521.62 2669.86 2521.13C2670.3 2520.65 2670.94 2520.41 2671.78 2520.41C2672.62 2520.41 2673.27 2520.65 2673.7 2521.13C2674.14 2521.62 2674.36 2522.21 2674.36 2522.91C2674.36 2523.62 2674.14 2524.2 2673.7 2524.67C2673.27 2525.14 2672.62 2525.38 2671.78 2525.38C2670.94 2525.38 2670.3 2525.14 2669.86 2524.67C2669.44 2524.2 2669.23 2523.62 2669.23 2522.91ZM2679.73 2542.09C2679.73 2539.6 2680.21 2537.37 2681.18 2535.38C2682.16 2533.4 2683.52 2531.87 2685.26 2530.79C2687.01 2529.71 2689 2529.17 2691.23 2529.17C2694.69 2529.17 2697.48 2530.37 2699.6 2532.76C2701.74 2535.15 2702.81 2538.33 2702.81 2542.3V2542.6C2702.81 2545.07 2702.34 2547.29 2701.38 2549.26C2700.45 2551.21 2699.09 2552.73 2697.33 2553.83C2695.58 2554.92 2693.56 2555.47 2691.28 2555.47C2687.84 2555.47 2685.05 2554.27 2682.91 2551.88C2680.79 2549.49 2679.73 2546.33 2679.73 2542.39V2542.09ZM2684.09 2542.6C2684.09 2545.41 2684.73 2547.67 2686.03 2549.38C2687.34 2551.08 2689.09 2551.93 2691.28 2551.93C2693.48 2551.93 2695.23 2551.07 2696.53 2549.35C2697.83 2547.62 2698.48 2545.2 2698.48 2542.09C2698.48 2539.3 2697.81 2537.05 2696.48 2535.34C2695.17 2533.6 2693.42 2532.73 2691.23 2532.73C2689.09 2532.73 2687.37 2533.59 2686.05 2535.29C2684.74 2536.99 2684.09 2539.43 2684.09 2542.6ZM2712.35 2529.64L2712.49 2532.83C2714.43 2530.39 2716.96 2529.17 2720.09 2529.17C2725.45 2529.17 2728.15 2532.2 2728.2 2538.24V2555H2723.86V2538.22C2723.84 2536.39 2723.42 2535.04 2722.59 2534.16C2721.78 2533.29 2720.51 2532.85 2718.77 2532.85C2717.37 2532.85 2716.13 2533.23 2715.07 2533.98C2714.01 2534.73 2713.18 2535.71 2712.59 2536.93V2555H2708.25V2529.64H2712.35ZM2739.59 2545.37H2735.67L2735.37 2520.88H2739.91L2739.59 2545.37ZM2735.2 2552.82C2735.2 2552.12 2735.41 2551.53 2735.84 2551.06C2736.27 2550.58 2736.91 2550.34 2737.76 2550.34C2738.6 2550.34 2739.24 2550.58 2739.68 2551.06C2740.12 2551.53 2740.34 2552.12 2740.34 2552.82C2740.34 2553.52 2740.12 2554.11 2739.68 2554.58C2739.24 2555.03 2738.6 2555.26 2737.76 2555.26C2736.91 2555.26 2736.27 2555.03 2735.84 2554.58C2735.41 2554.11 2735.2 2553.52 2735.2 2552.82Z" fill="white"/>
<path d="M2165 246.747C2165 197.181 2205.15 157 2254.67 157H2726.7C2776.23 157 2816.37 197.181 2816.37 246.747V1464.25C2816.37 1513.82 2776.23 1554 2726.7 1554H2254.67C2205.15 1554 2165 1513.82 2165 1464.25V246.747Z" fill="#3A4245"/>
<path d="M2173.14 246.459C2173.14 201.548 2209.54 165.141 2254.43 165.141H2726.94C2771.83 165.141 2808.23 201.548 2808.23 246.459V1464.54C2808.23 1509.45 2771.83 1545.86 2726.94 1545.86H2254.43C2209.54 1545.86 2173.14 1509.45 2173.14 1464.54V246.459Z" fill="#121515"/>
<path fill-rule="evenodd" clip-rule="evenodd" d="M2454.86 213.987C2454.86 211.289 2457.1 209.103 2459.86 209.103H2521.51C2524.27 209.103 2526.51 211.289 2526.51 213.987C2526.51 216.685 2524.27 218.872 2521.51 218.872H2459.86C2457.1 218.872 2454.86 216.685 2454.86 213.987Z" fill="#262C2D"/>
<path d="M2363.1 204.777C2363.1 201.176 2366.02 198.257 2369.62 198.257C2373.21 198.257 2376.13 201.176 2376.13 204.777V225.966C2376.13 229.567 2373.21 232.486 2369.62 232.486C2366.02 232.486 2363.1 229.567 2363.1 225.966V204.777Z" fill="#262C2D"/>
<path d="M2348.45 215.372C2348.45 224.824 2340.8 232.486 2331.36 232.486C2321.92 232.486 2314.27 224.824 2314.27 215.372C2314.27 205.919 2321.92 198.257 2331.36 198.257C2340.8 198.257 2348.45 205.919 2348.45 215.372Z" fill="#262C2D"/>
<path d="M2343.57 215.371C2343.57 222.123 2338.1 227.596 2331.36 227.596C2324.62 227.596 2319.15 222.123 2319.15 215.371C2319.15 208.62 2324.62 203.147 2331.36 203.147C2338.1 203.147 2343.57 208.62 2343.57 215.371Z" fill="#121515"/>
<path d="M2816.37 665H2819.63C2821.43 665 2822.89 666.51 2822.89 668.373V850.499C2822.89 852.362 2821.43 853.872 2819.63 853.872H2816.37V665Z" fill="#121515"/>
<path d="M2816.37 472.872H2819.63C2821.43 472.872 2822.89 474.382 2822.89 476.245V563.935C2822.89 565.798 2821.43 567.308 2819.63 567.308H2816.37V472.872Z" fill="#FB7E5C"/>
<mask id="mask2" mask-type="alpha" maskUnits="userSpaceOnUse" x="2190" y="253" width="603" height="1272">
<path d="M2190 317.515C2190 281.884 2218.88 253 2254.49 253H2728.02C2763.64 253 2792.52 281.884 2792.52 317.515V1460.11C2792.52 1495.74 2763.64 1524.63 2728.02 1524.63H2254.49C2218.88 1524.63 2190 1495.74 2190 1460.11V317.515Z" fill="white"/>
</mask>
<g mask="url(#mask2)">
<rect x="2190" y="253" width="602.519" height="1271.63" fill="#212121"/>
</g>
<rect x="2227" y="1332" width="527.977" height="145" rx="25" fill="#EEEEEE"/>
<path d="M2413.38 1396.64L2413.52 1399.83C2415.46 1397.39 2417.99 1396.17 2421.12 1396.17C2426.48 1396.17 2429.18 1399.2 2429.23 1405.24V1422H2424.89V1405.22C2424.88 1403.39 2424.45 1402.04 2423.62 1401.16C2422.81 1400.29 2421.54 1399.85 2419.8 1399.85C2418.4 1399.85 2417.16 1400.23 2416.1 1400.98C2415.04 1401.73 2414.21 1402.71 2413.62 1403.93V1422H2409.28V1396.64H2413.38ZM2446.29 1422.47C2442.85 1422.47 2440.05 1421.34 2437.9 1419.09C2435.74 1416.83 2434.66 1413.8 2434.66 1410.02V1409.23C2434.66 1406.71 2435.14 1404.47 2436.09 1402.5C2437.06 1400.52 2438.41 1398.97 2440.12 1397.86C2441.86 1396.73 2443.73 1396.17 2445.75 1396.17C2449.05 1396.17 2451.61 1397.26 2453.44 1399.43C2455.27 1401.6 2456.18 1404.71 2456.18 1408.76V1410.56H2439C2439.06 1413.06 2439.79 1415.09 2441.18 1416.63C2442.59 1418.16 2444.37 1418.93 2446.52 1418.93C2448.05 1418.93 2449.35 1418.62 2450.41 1417.99C2451.48 1417.37 2452.41 1416.54 2453.2 1415.51L2455.85 1417.57C2453.73 1420.84 2450.54 1422.47 2446.29 1422.47ZM2445.75 1399.73C2444 1399.73 2442.53 1400.38 2441.34 1401.66C2440.16 1402.92 2439.42 1404.7 2439.14 1407H2451.84V1406.67C2451.72 1404.47 2451.12 1402.77 2450.06 1401.56C2449 1400.34 2447.56 1399.73 2445.75 1399.73ZM2469.73 1405.9L2475.35 1396.64H2480.41L2472.12 1409.18L2480.67 1422H2475.66L2469.8 1412.51L2463.94 1422H2458.9L2467.45 1409.18L2459.16 1396.64H2464.17L2469.73 1405.9ZM2490.91 1390.5V1396.64H2495.65V1399.99H2490.91V1415.72C2490.91 1416.73 2491.12 1417.5 2491.55 1418.02C2491.97 1418.52 2492.69 1418.77 2493.7 1418.77C2494.2 1418.77 2494.89 1418.67 2495.77 1418.48V1422C2494.62 1422.31 2493.52 1422.47 2492.44 1422.47C2490.5 1422.47 2489.04 1421.88 2488.05 1420.71C2487.07 1419.54 2486.58 1417.88 2486.58 1415.72V1399.99H2481.96V1396.64H2486.58V1390.5H2490.91Z" fill="black"/>
<path d="M2699.93 1382.87H2686.03L2701.48 1404.5L2686.03 1426.13H2699.93L2715.38 1404.5L2699.93 1382.87Z" fill="black"/>
<path d="M2678.3 1382.87H2664.4L2679.85 1404.5L2664.4 1426.13H2678.3L2693.75 1404.5L2678.3 1382.87Z" fill="black"/>
<path d="M2262.39 654.555L2264.88 656.242C2263.42 658.227 2262.67 660.367 2262.62 662.664V665.852H2258.31V663.133C2258.31 661.539 2258.69 659.961 2259.44 658.398C2260.2 656.836 2261.19 655.555 2262.39 654.555ZM2269.77 654.555L2272.26 656.242C2270.8 658.227 2270.05 660.367 2270.01 662.664V665.852H2265.7V663.133C2265.7 661.539 2266.07 659.961 2266.82 658.398C2267.59 656.836 2268.57 655.555 2269.77 654.555ZM2281.63 691H2277.13V656.875H2281.63V691ZM2295.09 659.5V665.641H2299.82V668.992H2295.09V684.719C2295.09 685.734 2295.3 686.5 2295.72 687.016C2296.14 687.516 2296.86 687.766 2297.88 687.766C2298.38 687.766 2299.06 687.672 2299.94 687.484V691C2298.8 691.312 2297.69 691.469 2296.61 691.469C2294.67 691.469 2293.21 690.883 2292.23 689.711C2291.24 688.539 2290.75 686.875 2290.75 684.719V668.992H2286.13V665.641H2290.75V659.5H2295.09ZM2307.55 657.602L2307.06 666.227H2304.04L2304.06 655H2307.55V657.602ZM2326.19 684.273C2326.19 683.102 2325.74 682.195 2324.85 681.555C2323.98 680.898 2322.44 680.336 2320.23 679.867C2318.05 679.398 2316.3 678.836 2315.01 678.18C2313.73 677.523 2312.77 676.742 2312.15 675.836C2311.54 674.93 2311.23 673.852 2311.23 672.602C2311.23 670.523 2312.11 668.766 2313.86 667.328C2315.62 665.891 2317.88 665.172 2320.61 665.172C2323.48 665.172 2325.81 665.914 2327.59 667.398C2329.39 668.883 2330.29 670.781 2330.29 673.094H2325.93C2325.93 671.906 2325.42 670.883 2324.41 670.023C2323.41 669.164 2322.14 668.734 2320.61 668.734C2319.03 668.734 2317.8 669.078 2316.91 669.766C2316.02 670.453 2315.57 671.352 2315.57 672.461C2315.57 673.508 2315.98 674.297 2316.81 674.828C2317.64 675.359 2319.13 675.867 2321.29 676.352C2323.46 676.836 2325.22 677.414 2326.56 678.086C2327.91 678.758 2328.9 679.57 2329.54 680.523C2330.2 681.461 2330.52 682.609 2330.52 683.969C2330.52 686.234 2329.62 688.055 2327.8 689.43C2325.99 690.789 2323.64 691.469 2320.75 691.469C2318.72 691.469 2316.92 691.109 2315.36 690.391C2313.8 689.672 2312.57 688.672 2311.68 687.391C2310.8 686.094 2310.37 684.695 2310.37 683.195H2314.7C2314.78 684.648 2315.36 685.805 2316.44 686.664C2317.53 687.508 2318.97 687.93 2320.75 687.93C2322.39 687.93 2323.7 687.602 2324.69 686.945C2325.69 686.273 2326.19 685.383 2326.19 684.273ZM2360.34 669.531C2359.68 669.422 2358.97 669.367 2358.2 669.367C2355.36 669.367 2353.43 670.578 2352.41 673V691H2348.08V665.641H2352.3L2352.37 668.57C2353.79 666.305 2355.8 665.172 2358.41 665.172C2359.26 665.172 2359.9 665.281 2360.34 665.5V669.531ZM2380 688.492C2378.31 690.477 2375.84 691.469 2372.57 691.469C2369.87 691.469 2367.8 690.688 2366.38 689.125C2364.98 687.547 2364.27 685.219 2364.25 682.141V665.641H2368.59V682.023C2368.59 685.867 2370.15 687.789 2373.27 687.789C2376.59 687.789 2378.79 686.555 2379.88 684.086V665.641H2384.22V691H2380.09L2380 688.492ZM2412.3 678.602C2412.3 682.477 2411.41 685.594 2409.62 687.953C2407.84 690.297 2405.45 691.469 2402.45 691.469C2399.25 691.469 2396.77 690.336 2395.02 688.07L2394.81 691H2390.83V655H2395.16V668.43C2396.91 666.258 2399.33 665.172 2402.41 665.172C2405.48 665.172 2407.9 666.336 2409.65 668.664C2411.41 670.992 2412.3 674.18 2412.3 678.227V678.602ZM2407.96 678.109C2407.96 675.156 2407.39 672.875 2406.25 671.266C2405.11 669.656 2403.47 668.852 2401.33 668.852C2398.47 668.852 2396.41 670.18 2395.16 672.836V683.805C2396.49 686.461 2398.56 687.789 2401.38 687.789C2403.45 687.789 2405.07 686.984 2406.23 685.375C2407.38 683.766 2407.96 681.344 2407.96 678.109ZM2439.25 678.602C2439.25 682.477 2438.36 685.594 2436.58 687.953C2434.8 690.297 2432.41 691.469 2429.41 691.469C2426.2 691.469 2423.73 690.336 2421.98 688.07L2421.77 691H2417.78V655H2422.12V668.43C2423.87 666.258 2426.28 665.172 2429.36 665.172C2432.44 665.172 2434.85 666.336 2436.6 668.664C2438.37 670.992 2439.25 674.18 2439.25 678.227V678.602ZM2434.91 678.109C2434.91 675.156 2434.34 672.875 2433.2 671.266C2432.06 669.656 2430.42 668.852 2428.28 668.852C2425.42 668.852 2423.37 670.18 2422.12 672.836V683.805C2423.45 686.461 2425.52 687.789 2428.33 687.789C2430.41 687.789 2432.02 686.984 2433.18 685.375C2434.34 683.766 2434.91 681.344 2434.91 678.109ZM2449.45 691H2445.11V665.641H2449.45V691ZM2444.76 658.914C2444.76 658.211 2444.97 657.617 2445.39 657.133C2445.83 656.648 2446.47 656.406 2447.31 656.406C2448.16 656.406 2448.8 656.648 2449.23 657.133C2449.67 657.617 2449.89 658.211 2449.89 658.914C2449.89 659.617 2449.67 660.203 2449.23 660.672C2448.8 661.141 2448.16 661.375 2447.31 661.375C2446.47 661.375 2445.83 661.141 2445.39 660.672C2444.97 660.203 2444.76 659.617 2444.76 658.914ZM2471.17 684.273C2471.17 683.102 2470.73 682.195 2469.84 681.555C2468.96 680.898 2467.42 680.336 2465.22 679.867C2463.03 679.398 2461.29 678.836 2459.99 678.18C2458.71 677.523 2457.76 676.742 2457.13 675.836C2456.52 674.93 2456.22 673.852 2456.22 672.602C2456.22 670.523 2457.09 668.766 2458.84 667.328C2460.61 665.891 2462.86 665.172 2465.59 665.172C2468.47 665.172 2470.8 665.914 2472.58 667.398C2474.38 668.883 2475.27 670.781 2475.27 673.094H2470.91C2470.91 671.906 2470.41 670.883 2469.39 670.023C2468.39 669.164 2467.12 668.734 2465.59 668.734C2464.02 668.734 2462.78 669.078 2461.89 669.766C2461 670.453 2460.55 671.352 2460.55 672.461C2460.55 673.508 2460.97 674.297 2461.8 674.828C2462.62 675.359 2464.12 675.867 2466.27 676.352C2468.45 676.836 2470.2 677.414 2471.55 678.086C2472.89 678.758 2473.88 679.57 2474.52 680.523C2475.18 681.461 2475.51 682.609 2475.51 683.969C2475.51 686.234 2474.6 688.055 2472.79 689.43C2470.98 690.789 2468.62 691.469 2465.73 691.469C2463.7 691.469 2461.91 691.109 2460.34 690.391C2458.78 689.672 2457.55 688.672 2456.66 687.391C2455.79 686.094 2455.35 684.695 2455.35 683.195H2459.69C2459.77 684.648 2460.34 685.805 2461.42 686.664C2462.52 687.508 2463.95 687.93 2465.73 687.93C2467.38 687.93 2468.69 687.602 2469.67 686.945C2470.67 686.273 2471.17 685.383 2471.17 684.273ZM2485.49 668.711C2487.41 666.352 2489.91 665.172 2492.99 665.172C2498.35 665.172 2501.05 668.195 2501.1 674.242V691H2496.77V674.219C2496.75 672.391 2496.33 671.039 2495.5 670.164C2494.69 669.289 2493.41 668.852 2491.68 668.852C2490.27 668.852 2489.04 669.227 2487.98 669.977C2486.91 670.727 2486.09 671.711 2485.49 672.93V691H2481.16V655H2485.49V668.711ZM2540.97 678.602C2540.97 682.477 2540.08 685.594 2538.3 687.953C2536.52 690.297 2534.12 691.469 2531.12 691.469C2527.92 691.469 2525.45 690.336 2523.7 688.07L2523.48 691H2519.5V655H2523.84V668.43C2525.59 666.258 2528 665.172 2531.08 665.172C2534.16 665.172 2536.57 666.336 2538.32 668.664C2540.09 670.992 2540.97 674.18 2540.97 678.227V678.602ZM2536.63 678.109C2536.63 675.156 2536.06 672.875 2534.92 671.266C2533.78 669.656 2532.14 668.852 2530 668.852C2527.14 668.852 2525.09 670.18 2523.84 672.836V683.805C2525.16 686.461 2527.23 687.789 2530.05 687.789C2532.12 687.789 2533.74 686.984 2534.9 685.375C2536.05 683.766 2536.63 681.344 2536.63 678.109ZM2562.11 688.492C2560.42 690.477 2557.95 691.469 2554.68 691.469C2551.98 691.469 2549.91 690.688 2548.49 689.125C2547.09 687.547 2546.38 685.219 2546.36 682.141V665.641H2550.7V682.023C2550.7 685.867 2552.26 687.789 2555.38 687.789C2558.7 687.789 2560.9 686.555 2561.99 684.086V665.641H2566.33V691H2562.2L2562.11 688.492ZM2578.82 659.5V665.641H2583.55V668.992H2578.82V684.719C2578.82 685.734 2579.03 686.5 2579.45 687.016C2579.88 687.516 2580.59 687.766 2581.61 687.766C2582.11 687.766 2582.8 687.672 2583.67 687.484V691C2582.53 691.312 2581.42 691.469 2580.34 691.469C2578.41 691.469 2576.95 690.883 2575.96 689.711C2574.98 688.539 2574.48 686.875 2574.48 684.719V668.992H2569.87V665.641H2574.48V659.5H2578.82ZM2605.26 691H2600.92V665.641H2605.26V691ZM2600.57 658.914C2600.57 658.211 2600.78 657.617 2601.2 657.133C2601.64 656.648 2602.28 656.406 2603.12 656.406C2603.97 656.406 2604.61 656.648 2605.05 657.133C2605.48 657.617 2605.7 658.211 2605.7 658.914C2605.7 659.617 2605.48 660.203 2605.05 660.672C2604.61 661.141 2603.97 661.375 2603.12 661.375C2602.28 661.375 2601.64 661.141 2601.2 660.672C2600.78 660.203 2600.57 659.617 2600.57 658.914ZM2618.1 659.5V665.641H2622.84V668.992H2618.1V684.719C2618.1 685.734 2618.31 686.5 2618.73 687.016C2619.16 687.516 2619.88 687.766 2620.89 687.766C2621.39 687.766 2622.08 687.672 2622.95 687.484V691C2621.81 691.312 2620.7 691.469 2619.62 691.469C2617.69 691.469 2616.23 690.883 2615.24 689.711C2614.26 688.539 2613.77 686.875 2613.77 684.719V668.992H2609.15V665.641H2613.77V659.5H2618.1ZM2642.69 684.273C2642.69 683.102 2642.24 682.195 2641.35 681.555C2640.48 680.898 2638.94 680.336 2636.73 679.867C2634.55 679.398 2632.8 678.836 2631.51 678.18C2630.23 677.523 2629.27 676.742 2628.65 675.836C2628.04 674.93 2627.73 673.852 2627.73 672.602C2627.73 670.523 2628.61 668.766 2630.36 667.328C2632.12 665.891 2634.38 665.172 2637.11 665.172C2639.98 665.172 2642.31 665.914 2644.09 667.398C2645.89 668.883 2646.79 670.781 2646.79 673.094H2642.43C2642.43 671.906 2641.92 670.883 2640.91 670.023C2639.91 669.164 2638.64 668.734 2637.11 668.734C2635.53 668.734 2634.3 669.078 2633.41 669.766C2632.52 670.453 2632.07 671.352 2632.07 672.461C2632.07 673.508 2632.48 674.297 2633.31 674.828C2634.14 675.359 2635.63 675.867 2637.79 676.352C2639.96 676.836 2641.72 677.414 2643.06 678.086C2644.41 678.758 2645.4 679.57 2646.04 680.523C2646.7 681.461 2647.02 682.609 2647.02 683.969C2647.02 686.234 2646.12 688.055 2644.3 689.43C2642.49 690.789 2640.14 691.469 2637.25 691.469C2635.22 691.469 2633.42 691.109 2631.86 690.391C2630.3 689.672 2629.07 688.672 2628.18 687.391C2627.3 686.094 2626.87 684.695 2626.87 683.195H2631.2C2631.28 684.648 2631.86 685.805 2632.94 686.664C2634.03 687.508 2635.47 687.93 2637.25 687.93C2638.89 687.93 2640.2 687.602 2641.19 686.945C2642.19 686.273 2642.69 685.383 2642.69 684.273ZM2668.66 665.641L2668.77 668.453C2670.63 666.266 2673.14 665.172 2676.3 665.172C2679.84 665.172 2682.26 666.531 2683.54 669.25C2684.38 668.031 2685.48 667.047 2686.82 666.297C2688.18 665.547 2689.78 665.172 2691.62 665.172C2697.19 665.172 2700.02 668.117 2700.11 674.008V691H2695.77V674.266C2695.77 672.453 2695.36 671.102 2694.53 670.211C2693.7 669.305 2692.31 668.852 2690.36 668.852C2688.75 668.852 2687.41 669.336 2686.35 670.305C2685.29 671.258 2684.67 672.547 2684.5 674.172V691H2680.14V674.383C2680.14 670.695 2678.34 668.852 2674.73 668.852C2671.88 668.852 2669.94 670.062 2668.89 672.484V691H2664.55V665.641H2668.66ZM2714.97 684.648L2720.88 665.641H2725.52L2715.32 694.914C2713.74 699.133 2711.23 701.242 2707.8 701.242L2706.98 701.172L2705.36 700.867V697.352L2706.53 697.445C2708 697.445 2709.14 697.148 2709.95 696.555C2710.78 695.961 2711.46 694.875 2711.99 693.297L2712.95 690.719L2703.91 665.641H2708.64L2714.97 684.648ZM2413.87 725.531C2413.21 725.422 2412.5 725.367 2411.73 725.367C2408.89 725.367 2406.96 726.578 2405.95 729V747H2401.61V721.641H2405.83L2405.9 724.57C2407.32 722.305 2409.34 721.172 2411.95 721.172C2412.79 721.172 2413.43 721.281 2413.87 721.5V725.531ZM2433.53 744.492C2431.84 746.477 2429.37 747.469 2426.1 747.469C2423.4 747.469 2421.34 746.688 2419.91 745.125C2418.51 743.547 2417.8 741.219 2417.78 738.141V721.641H2422.12V738.023C2422.12 741.867 2423.68 743.789 2426.8 743.789C2430.12 743.789 2432.32 742.555 2433.41 740.086V721.641H2437.75V747H2433.62L2433.53 744.492ZM2465.83 734.602C2465.83 738.477 2464.94 741.594 2463.16 743.953C2461.38 746.297 2458.98 747.469 2455.98 747.469C2452.78 747.469 2450.3 746.336 2448.55 744.07L2448.34 747H2444.36V711H2448.7V724.43C2450.45 722.258 2452.86 721.172 2455.94 721.172C2459.02 721.172 2461.43 722.336 2463.18 724.664C2464.95 726.992 2465.83 730.18 2465.83 734.227V734.602ZM2461.49 734.109C2461.49 731.156 2460.92 728.875 2459.78 727.266C2458.64 725.656 2457 724.852 2454.86 724.852C2452 724.852 2449.95 726.18 2448.7 728.836V739.805C2450.02 742.461 2452.09 743.789 2454.91 743.789C2456.98 743.789 2458.6 742.984 2459.76 741.375C2460.91 739.766 2461.49 737.344 2461.49 734.109ZM2492.78 734.602C2492.78 738.477 2491.89 741.594 2490.11 743.953C2488.33 746.297 2485.94 747.469 2482.94 747.469C2479.73 747.469 2477.26 746.336 2475.51 744.07L2475.3 747H2471.31V711H2475.65V724.43C2477.4 722.258 2479.81 721.172 2482.89 721.172C2485.97 721.172 2488.38 722.336 2490.13 724.664C2491.9 726.992 2492.78 730.18 2492.78 734.227V734.602ZM2488.45 734.109C2488.45 731.156 2487.88 728.875 2486.73 727.266C2485.59 725.656 2483.95 724.852 2481.81 724.852C2478.95 724.852 2476.9 726.18 2475.65 728.836V739.805C2476.98 742.461 2479.05 743.789 2481.86 743.789C2483.94 743.789 2485.55 742.984 2486.71 741.375C2487.87 739.766 2488.45 737.344 2488.45 734.109ZM2502.98 747H2498.64V721.641H2502.98V747ZM2498.29 714.914C2498.29 714.211 2498.5 713.617 2498.92 713.133C2499.36 712.648 2500 712.406 2500.84 712.406C2501.69 712.406 2502.33 712.648 2502.77 713.133C2503.2 713.617 2503.42 714.211 2503.42 714.914C2503.42 715.617 2503.2 716.203 2502.77 716.672C2502.33 717.141 2501.69 717.375 2500.84 717.375C2500 717.375 2499.36 717.141 2498.92 716.672C2498.5 716.203 2498.29 715.617 2498.29 714.914ZM2524.7 740.273C2524.7 739.102 2524.26 738.195 2523.37 737.555C2522.49 736.898 2520.95 736.336 2518.75 735.867C2516.56 735.398 2514.82 734.836 2513.52 734.18C2512.24 733.523 2511.29 732.742 2510.66 731.836C2510.05 730.93 2509.75 729.852 2509.75 728.602C2509.75 726.523 2510.62 724.766 2512.38 723.328C2514.14 721.891 2516.39 721.172 2519.12 721.172C2522 721.172 2524.33 721.914 2526.11 723.398C2527.91 724.883 2528.8 726.781 2528.8 729.094H2524.45C2524.45 727.906 2523.94 726.883 2522.92 726.023C2521.92 725.164 2520.66 724.734 2519.12 724.734C2517.55 724.734 2516.31 725.078 2515.42 725.766C2514.53 726.453 2514.09 727.352 2514.09 728.461C2514.09 729.508 2514.5 730.297 2515.33 730.828C2516.16 731.359 2517.65 731.867 2519.8 732.352C2521.98 732.836 2523.73 733.414 2525.08 734.086C2526.42 734.758 2527.41 735.57 2528.05 736.523C2528.71 737.461 2529.04 738.609 2529.04 739.969C2529.04 742.234 2528.13 744.055 2526.32 745.43C2524.51 746.789 2522.16 747.469 2519.27 747.469C2517.23 747.469 2515.44 747.109 2513.88 746.391C2512.31 745.672 2511.09 744.672 2510.2 743.391C2509.32 742.094 2508.88 740.695 2508.88 739.195H2513.22C2513.3 740.648 2513.88 741.805 2514.95 742.664C2516.05 743.508 2517.48 743.93 2519.27 743.93C2520.91 743.93 2522.22 743.602 2523.2 742.945C2524.2 742.273 2524.7 741.383 2524.7 740.273ZM2539.02 724.711C2540.95 722.352 2543.45 721.172 2546.52 721.172C2551.88 721.172 2554.59 724.195 2554.63 730.242V747H2550.3V730.219C2550.28 728.391 2549.86 727.039 2549.03 726.164C2548.22 725.289 2546.95 724.852 2545.21 724.852C2543.8 724.852 2542.57 725.227 2541.51 725.977C2540.45 726.727 2539.62 727.711 2539.02 728.93V747H2534.69V711H2539.02V724.711ZM2561.22 744.727C2561.22 743.977 2561.44 743.352 2561.88 742.852C2562.33 742.352 2563 742.102 2563.89 742.102C2564.78 742.102 2565.45 742.352 2565.91 742.852C2566.38 743.352 2566.61 743.977 2566.61 744.727C2566.61 745.445 2566.38 746.047 2565.91 746.531C2565.45 747.016 2564.78 747.258 2563.89 747.258C2563 747.258 2562.33 747.016 2561.88 746.531C2561.44 746.047 2561.22 745.445 2561.22 744.727ZM2570.38 722.484L2567.92 720.797C2569.38 718.766 2570.12 716.625 2570.17 714.375V711H2574.46V714.047C2574.45 715.609 2574.05 717.172 2573.29 718.734C2572.54 720.281 2571.57 721.531 2570.38 722.484ZM2577.58 722.484L2575.12 720.797C2576.57 718.766 2577.32 716.625 2577.37 714.375V711H2581.66V714.047C2581.64 715.609 2581.25 717.172 2580.48 718.734C2579.73 720.281 2578.77 721.531 2577.58 722.484Z" fill="white"/>
<path d="M2419.25 808C2419.06 807.625 2418.91 806.957 2418.79 805.996C2417.28 807.566 2415.47 808.352 2413.38 808.352C2411.5 808.352 2409.96 807.824 2408.75 806.77C2407.56 805.703 2406.96 804.355 2406.96 802.727C2406.96 800.746 2407.71 799.211 2409.21 798.121C2410.72 797.02 2412.84 796.469 2415.57 796.469H2418.74V794.975C2418.74 793.838 2418.4 792.936 2417.72 792.268C2417.04 791.588 2416.04 791.248 2414.71 791.248C2413.55 791.248 2412.58 791.541 2411.79 792.127C2411.01 792.713 2410.62 793.422 2410.62 794.254H2407.35C2407.35 793.305 2407.68 792.391 2408.35 791.512C2409.03 790.621 2409.94 789.918 2411.09 789.402C2412.25 788.887 2413.52 788.629 2414.9 788.629C2417.1 788.629 2418.81 789.18 2420.05 790.281C2421.3 791.371 2421.94 792.877 2421.99 794.799V803.553C2421.99 805.299 2422.21 806.688 2422.66 807.719V808H2419.25ZM2413.85 805.521C2414.87 805.521 2415.84 805.258 2416.75 804.73C2417.66 804.203 2418.33 803.518 2418.74 802.674V798.771H2416.19C2412.2 798.771 2410.21 799.938 2410.21 802.27C2410.21 803.289 2410.55 804.086 2411.23 804.66C2411.91 805.234 2412.78 805.521 2413.85 805.521ZM2430.62 808H2427.37V781H2430.62V808ZM2441.15 799.193L2439.11 801.32V808H2435.86V781H2439.11V797.33L2440.85 795.238L2446.77 788.98H2450.73L2443.33 796.926L2451.59 808H2447.78L2441.15 799.193ZM2465.83 808C2465.64 807.625 2465.49 806.957 2465.37 805.996C2463.86 807.566 2462.05 808.352 2459.96 808.352C2458.08 808.352 2456.54 807.824 2455.33 806.77C2454.14 805.703 2453.54 804.355 2453.54 802.727C2453.54 800.746 2454.29 799.211 2455.79 798.121C2457.3 797.02 2459.42 796.469 2462.15 796.469H2465.32V794.975C2465.32 793.838 2464.98 792.936 2464.3 792.268C2463.62 791.588 2462.62 791.248 2461.29 791.248C2460.13 791.248 2459.16 791.541 2458.38 792.127C2457.59 792.713 2457.2 793.422 2457.2 794.254H2453.93C2453.93 793.305 2454.26 792.391 2454.93 791.512C2455.61 790.621 2456.52 789.918 2457.67 789.402C2458.83 788.887 2460.1 788.629 2461.49 788.629C2463.68 788.629 2465.39 789.18 2466.64 790.281C2467.88 791.371 2468.52 792.877 2468.57 794.799V803.553C2468.57 805.299 2468.79 806.688 2469.24 807.719V808H2465.83ZM2460.43 805.521C2461.45 805.521 2462.42 805.258 2463.33 804.73C2464.25 804.203 2464.91 803.518 2465.32 802.674V798.771H2462.77C2458.79 798.771 2456.79 799.938 2456.79 802.27C2456.79 803.289 2457.13 804.086 2457.81 804.66C2458.49 805.234 2459.37 805.521 2460.43 805.521ZM2476.74 788.98L2476.85 791.371C2478.3 789.543 2480.2 788.629 2482.54 788.629C2486.56 788.629 2488.59 790.896 2488.63 795.432V808H2485.38V795.414C2485.36 794.043 2485.05 793.029 2484.43 792.373C2483.82 791.717 2482.86 791.389 2481.56 791.389C2480.51 791.389 2479.58 791.67 2478.78 792.232C2477.99 792.795 2477.37 793.533 2476.92 794.447V808H2473.67V788.98H2476.74ZM2492.67 798.314C2492.67 796.451 2493.03 794.775 2493.76 793.287C2494.5 791.799 2495.52 790.65 2496.82 789.842C2498.13 789.033 2499.62 788.629 2501.3 788.629C2503.89 788.629 2505.98 789.525 2507.58 791.318C2509.18 793.111 2509.98 795.496 2509.98 798.473V798.701C2509.98 800.553 2509.63 802.217 2508.91 803.693C2508.21 805.158 2507.2 806.301 2505.87 807.121C2504.56 807.941 2503.05 808.352 2501.34 808.352C2498.76 808.352 2496.67 807.455 2495.06 805.662C2493.47 803.869 2492.67 801.496 2492.67 798.543V798.314ZM2495.94 798.701C2495.94 800.811 2496.43 802.504 2497.4 803.781C2498.38 805.059 2499.7 805.697 2501.34 805.697C2502.99 805.697 2504.3 805.053 2505.27 803.764C2506.25 802.463 2506.73 800.646 2506.73 798.314C2506.73 796.229 2506.23 794.541 2505.24 793.252C2504.25 791.951 2502.94 791.301 2501.3 791.301C2499.7 791.301 2498.4 791.939 2497.42 793.217C2496.43 794.494 2495.94 796.322 2495.94 798.701ZM2517.6 808H2514.34V788.98H2517.6V808ZM2514.08 783.936C2514.08 783.408 2514.24 782.963 2514.55 782.6C2514.88 782.236 2515.36 782.055 2516 782.055C2516.63 782.055 2517.11 782.236 2517.44 782.6C2517.77 782.963 2517.93 783.408 2517.93 783.936C2517.93 784.463 2517.77 784.902 2517.44 785.254C2517.11 785.605 2516.63 785.781 2516 785.781C2515.36 785.781 2514.88 785.605 2514.55 785.254C2514.24 784.902 2514.08 784.463 2514.08 783.936ZM2522.03 798.332C2522.03 795.414 2522.72 793.07 2524.1 791.301C2525.48 789.52 2527.29 788.629 2529.53 788.629C2531.76 788.629 2533.52 789.391 2534.82 790.914V781H2538.07V808H2535.09L2534.93 805.961C2533.63 807.555 2531.82 808.352 2529.5 808.352C2527.29 808.352 2525.49 807.449 2524.1 805.645C2522.72 803.84 2522.03 801.484 2522.03 798.578V798.332ZM2525.28 798.701C2525.28 800.857 2525.72 802.545 2526.61 803.764C2527.5 804.982 2528.73 805.592 2530.3 805.592C2532.37 805.592 2533.87 804.666 2534.82 802.814V794.078C2533.85 792.285 2532.36 791.389 2530.34 791.389C2528.75 791.389 2527.5 792.004 2526.61 793.234C2525.72 794.465 2525.28 796.287 2525.28 798.701ZM2551.03 808.352C2548.45 808.352 2546.35 807.508 2544.74 805.82C2543.12 804.121 2542.31 801.854 2542.31 799.018V798.42C2542.31 796.533 2542.67 794.852 2543.38 793.375C2544.11 791.887 2545.12 790.727 2546.41 789.895C2547.71 789.051 2549.11 788.629 2550.62 788.629C2553.1 788.629 2555.02 789.443 2556.39 791.072C2557.76 792.701 2558.45 795.033 2558.45 798.068V799.422H2545.56C2545.61 801.297 2546.15 802.814 2547.2 803.975C2548.25 805.123 2549.59 805.697 2551.21 805.697C2552.35 805.697 2553.33 805.463 2554.12 804.994C2554.92 804.525 2555.62 803.904 2556.21 803.131L2558.2 804.678C2556.61 807.127 2554.22 808.352 2551.03 808.352ZM2550.62 791.301C2549.31 791.301 2548.21 791.781 2547.32 792.742C2546.43 793.691 2545.88 795.027 2545.67 796.75H2555.2V796.504C2555.1 794.852 2554.66 793.574 2553.86 792.672C2553.06 791.758 2551.98 791.301 2550.62 791.301ZM2568.26 803.588L2572.97 788.98H2576.29L2569.47 808H2566.99L2560.1 788.98H2563.42L2568.26 803.588Z" fill="#BDB4BF"/>
<defs>
<linearGradient id="paint0_linear" x1="483.484" y1="826.999" x2="400.63" y2="826.999" gradientUnits="userSpaceOnUse">
<stop offset="0.810417" stop-color="#EEEEEE"/>
<stop offset="1" stop-color="#EEEEEE" stop-opacity="0"/>
</linearGradient>
<linearGradient id="paint1_linear" x1="483.902" y1="904.377" x2="436.951" y2="902.996" gradientUnits="userSpaceOnUse">
<stop offset="0.732292" stop-color="#EEEEEE"/>
<stop offset="1" stop-color="#EEEEEE" stop-opacity="0"/>
</linearGradient>
<linearGradient id="paint2_linear" x1="599.48" y1="826.999" x2="516.626" y2="826.999" gradientUnits="userSpaceOnUse">
<stop offset="0.810417" stop-color="#EEEEEE"/>
<stop offset="1" stop-color="#EEEEEE" stop-opacity="0"/>
</linearGradient>
<linearGradient id="paint3_linear" x1="599.898" y1="904.377" x2="552.947" y2="902.996" gradientUnits="userSpaceOnUse">
<stop offset="0.732292" stop-color="#EEEEEE"/>
<stop offset="1" stop-color="#EEEEEE" stop-opacity="0"/>
</linearGradient>
<linearGradient id="paint4_linear" x1="1428.48" y1="1352.41" x2="1326.13" y2="1352.41" gradientUnits="userSpaceOnUse">
<stop offset="0.810417" stop-color="#EEEEEE"/>
<stop offset="1" stop-color="#EEEEEE" stop-opacity="0"/>
</linearGradient>
<linearGradient id="paint5_linear" x1="1429" y1="1448" x2="1371" y2="1446.29" gradientUnits="userSpaceOnUse">
<stop offset="0.732292" stop-color="#EEEEEE"/>
<stop offset="1" stop-color="#EEEEEE" stop-opacity="0"/>
</linearGradient>
<linearGradient id="paint6_linear" x1="1563.48" y1="1352.41" x2="1461.13" y2="1352.41" gradientUnits="userSpaceOnUse">
<stop offset="0.810417" stop-color="#EEEEEE"/>
<stop offset="1" stop-color="#EEEEEE" stop-opacity="0"/>
</linearGradient>
<linearGradient id="paint7_linear" x1="1564" y1="1448" x2="1506" y2="1446.29" gradientUnits="userSpaceOnUse">
<stop offset="0.732292" stop-color="#EEEEEE"/>
<stop offset="1" stop-color="#EEEEEE" stop-opacity="0"/>
</linearGradient>
<clipPath id="clip0">
<rect width="283" height="167" fill="white" transform="translate(1306 1303)"/>
</clipPath>
</defs>
</svg>
